<svg width="430" height="331" viewBox="0 0 430 331" fill="none" xmlns="http://www.w3.org/2000/svg">
<path d="M38.2266 7.98047C38.2266 10.5645 39.5449 13.3242 42.2344 14.4492L41.0215 16.207C39.1318 15.4072 37.8311 13.8164 37.1191 11.8652C36.3896 13.9834 35.0625 15.7412 33.1816 16.6113L31.8984 14.8359C34.5527 13.6582 35.9238 10.6875 35.9238 7.98047V6.99609H32.5312V5.16797H41.5664V6.99609H38.2266V7.98047ZM45.416 3.62109V19.6172H43.1484V3.62109H45.416ZM50.4785 4.69336V10.6348C52.4209 10.6084 54.5303 10.459 56.7539 10.002L57 11.8301C54.3984 12.3574 51.9023 12.498 49.5996 12.498H48.2285V4.69336H50.4785ZM60.2695 3.63867V8.12109H62.4316V10.002H60.2695V15.1172H58.0195V3.63867H60.2695ZM60.7969 17.543V19.3359H49.8984V14.0449H52.166V17.543H60.7969ZM73.2949 5.27344V18H70.6406V7.78711H70.5703L67.6523 9.61523V7.27734L70.7988 5.27344H73.2949ZM89.2031 3.63867V15.3984H86.9707V10.1602H82.998V8.40234H86.9707V7.17188H82.998V5.41406H86.9707V3.63867H89.2031ZM89.5898 17.543V19.3359H78.5684V14.3438H80.8184V17.543H89.5898ZM78.832 4.64062V11.4785C80.792 11.4609 82.6201 11.3291 84.6152 10.9688L84.8438 12.7793C82.4531 13.2363 80.291 13.3242 77.9004 13.3242H76.6172V4.64062H78.832ZM110.051 11.1797V12.9375H95.4258V11.1797H101.648V9.80859H97.2012V4.32422H108.293V6.06445H99.4336V8.05078H108.381V9.80859H103.846V11.1797H110.051ZM102.703 13.7461C106.166 13.7461 108.258 14.8008 108.275 16.6992C108.258 18.5625 106.166 19.6348 102.703 19.6348C99.2051 19.6348 97.0957 18.5625 97.0957 16.6992C97.0957 14.8008 99.2051 13.7461 102.703 13.7461ZM102.703 15.4512C100.488 15.4512 99.3633 15.873 99.3809 16.6992C99.3633 17.543 100.488 17.9297 102.703 17.9297C104.865 17.9297 106.008 17.543 106.025 16.6992C106.008 15.873 104.865 15.4512 102.703 15.4512ZM123.674 3.62109V8.20898H125.836V10.0723H123.674V15.2754H121.424V3.62109H123.674ZM124.254 17.543V19.3359H113.303V14.0449H115.535V17.543H124.254ZM115.482 4.6582C117.926 4.6582 119.842 6.3457 119.842 8.71875C119.842 11.0566 117.926 12.7793 115.482 12.7793C113.021 12.7793 111.088 11.0566 111.088 8.71875C111.088 6.3457 113.021 4.6582 115.482 4.6582ZM115.482 6.60938C114.27 6.5918 113.285 7.38281 113.303 8.71875C113.285 10.0195 114.27 10.8281 115.482 10.8281C116.713 10.8281 117.645 10.0195 117.662 8.71875C117.645 7.38281 116.713 6.5918 115.482 6.60938ZM144.486 3.62109V19.6172H142.324V11.6191H140.83V18.8438H138.721V3.88477H140.83V9.80859H142.324V3.62109H144.486ZM133.588 5.39648V13.7461C134.871 13.7197 136.277 13.6055 137.824 13.3066L138.053 15.2402C135.908 15.6094 134.08 15.7148 132.428 15.7148H131.338V5.39648H133.588ZM163.137 4.25391V9.87891H158.795V11.4082H164.982V13.2188H150.393V11.4082H156.545V9.87891H152.203V4.25391H163.137ZM154.4 5.99414V8.12109H160.939V5.99414H154.4ZM163.207 14.3965V19.6172H160.975V16.1543H152.01V14.3965H163.207ZM180.574 11.7773V13.5527H165.949V11.7773H172.119V10.2129H167.725V4.39453H178.816V6.1875H169.957V8.41992H178.975V10.2129H174.387V11.7773H180.574ZM179.062 17.543V19.3359H167.707V14.6602H169.922V17.543H179.062ZM184.881 16.6992L183.369 21.709H181.506L182.385 16.6992H184.881ZM41.25 28.5176V30.293H38.0684C38.0859 32.1826 39.2109 34.1162 41.7422 34.9512L40.6348 36.6738C38.8594 36.1113 37.6465 34.9512 36.9609 33.5098C36.2402 35.1094 34.9658 36.4014 33.0762 37.0078L31.9336 35.2324C34.5615 34.3887 35.7568 32.2881 35.7832 30.293H32.5664V28.5176H41.25ZM45.5039 37.8516V43.6172H43.2715V39.6445H34.5176V37.8516H45.5039ZM45.5039 27.6211V37.1484H43.2715V33.2988H40.793V31.4707H43.2715V27.6211H45.5039ZM60.4805 28.3418V29.625C60.4805 30.873 60.4805 32.2617 60.1113 34.0898H62.2207V35.9004H47.5781V34.0898H57.8438C58.1953 32.4902 58.2393 31.251 58.248 30.1348H49.3711V28.3418H60.4805ZM60.4277 37.5879V43.4414H49.3184V37.5879H60.4277ZM51.5156 39.3457V41.6484H58.1953V39.3457H51.5156ZM76.5293 27.6211V43.6523H74.2617V27.6211H76.5293ZM67.8457 28.7461C70.2539 28.7461 72.0469 30.9609 72.0469 34.4414C72.0469 37.957 70.2539 40.1543 67.8457 40.1543C65.3848 40.1543 63.5918 37.957 63.6094 34.4414C63.5918 30.9609 65.3848 28.7461 67.8457 28.7461ZM67.8457 30.7676C66.5977 30.7676 65.7715 32.0684 65.7715 34.4414C65.7715 36.832 66.5977 38.1152 67.8457 38.1152C69.0586 38.1152 69.8848 36.832 69.8848 34.4414C69.8848 32.0684 69.0586 30.7676 67.8457 30.7676ZM87.1465 28.7461C89.5898 28.7461 91.3477 30.9609 91.3652 34.4414C91.3477 37.957 89.5898 40.1543 87.1465 40.1543C84.7031 40.1543 82.9102 37.957 82.9277 34.4414C82.9102 30.9609 84.7031 28.7461 87.1465 28.7461ZM87.1465 30.7676C85.916 30.7676 85.0898 32.0684 85.0898 34.4414C85.0898 36.832 85.916 38.1152 87.1465 38.1152C88.3945 38.1152 89.2031 36.832 89.2207 34.4414C89.2031 32.0684 88.3945 30.7676 87.1465 30.7676ZM95.4609 27.6211V33.6504H97.8164V35.5137H95.4609V43.6172H93.2109V27.6211H95.4609ZM111.844 27.6211V43.6172H109.611V27.6211H111.844ZM101.473 29.1504V37.7461C103.635 37.7197 105.955 37.5176 108.311 37.0605L108.592 38.9062C105.779 39.4863 103.143 39.6797 100.664 39.6621H99.2578V29.1504H101.473ZM126.574 27.6211V33.668H128.93V35.5137H126.574V43.6523H124.359V27.6211H126.574ZM122.004 28.957V35.1621H116.854V38.0625C119.183 38.0537 121.107 37.9482 123.234 37.5879L123.428 39.3809C120.984 39.8203 118.787 39.9258 115.975 39.9258H114.621V33.3867H119.771V30.7676H114.604V28.957H122.004ZM134.256 29.2734H137.525L141.059 37.9043H141.199L144.732 29.2734H148.002V42H145.436V33.668H145.33L142.008 41.9473H140.25L136.928 33.6328H136.822V42H134.256V29.2734ZM155.771 31.2422C155.771 34.1777 157.107 37.1309 159.814 38.2734L158.496 40.0664C156.668 39.2402 155.402 37.6494 154.682 35.6719C153.952 37.8252 152.643 39.5654 150.691 40.4531L149.338 38.5898C152.133 37.4121 153.486 34.3535 153.504 31.2422V28.8516H155.771V31.2422ZM162.943 27.6211V43.6523H160.676V27.6211H162.943ZM177.902 29.0977V31.0137C177.902 33.2109 177.902 35.3906 177.322 38.6953L175.055 38.502C175.652 35.4258 175.652 33.1406 175.67 31.0137V30.8906H166.617V29.0977H177.902ZM179.695 39.6797V41.5254H165.105V39.6797H179.695ZM183.773 28.2891V33.4746C185.769 33.457 187.808 33.3076 189.961 32.9297L190.26 34.7402C187.641 35.2148 185.25 35.3555 182.877 35.3379H181.559V28.2891H183.773ZM194.145 27.6211V35.7246H191.912V31.6641H187.957V29.8711H191.912V27.6211H194.145ZM194.145 36.3223V40.6816H185.777V41.6484H194.531V43.4414H183.527V38.9766H191.895V38.0801H183.51V36.3223H194.145ZM203.514 27.8496C207.188 27.8496 209.314 28.8164 209.332 30.5742C209.314 32.3496 207.188 33.3164 203.514 33.3164C199.822 33.3164 197.678 32.3496 197.678 30.5742C197.678 28.8164 199.822 27.8496 203.514 27.8496ZM203.514 29.4844C201.158 29.4844 200.016 29.8711 200.033 30.5742C200.016 31.3652 201.158 31.6641 203.514 31.6641C205.887 31.6641 207.012 31.3652 207.012 30.5742C207.012 29.8711 205.887 29.4844 203.514 29.4844ZM210.809 34.0723V35.8477H196.219V34.0723H210.809ZM209.033 36.7793V40.8574H200.121V41.8242H209.455V43.5117H197.924V39.293H206.818V38.4141H197.906V36.7793H209.033ZM229.318 27.6211V43.6523H227.051V27.6211H229.318ZM220.635 28.7461C223.043 28.7461 224.836 30.9609 224.836 34.4414C224.836 37.957 223.043 40.1543 220.635 40.1543C218.174 40.1543 216.381 37.957 216.398 34.4414C216.381 30.9609 218.174 28.7461 220.635 28.7461ZM220.635 30.7676C219.387 30.7676 218.561 32.0684 218.561 34.4414C218.561 36.832 219.387 38.1152 220.635 38.1152C221.848 38.1152 222.674 36.832 222.674 34.4414C222.674 32.0684 221.848 30.7676 220.635 30.7676ZM246.07 35.1973V36.9902H231.48V35.1973H234.768V33.2812C233.599 32.7627 232.939 31.9717 232.939 30.9434C232.939 29.0098 235.207 27.8496 238.775 27.8496C242.309 27.8496 244.576 29.0098 244.594 30.9434C244.585 31.9805 243.899 32.7891 242.713 33.2988V35.1973H246.07ZM238.758 37.834C242.221 37.834 244.312 38.8535 244.33 40.6992C244.312 42.5801 242.221 43.5996 238.758 43.5996C235.242 43.5996 233.15 42.5801 233.15 40.6992C233.15 38.8535 235.242 37.834 238.758 37.834ZM238.758 39.5215C236.543 39.5215 235.418 39.9082 235.436 40.6992C235.418 41.5254 236.543 41.9297 238.758 41.9297C240.92 41.9297 242.062 41.5254 242.08 40.6992C242.062 39.9082 240.92 39.5215 238.758 39.5215ZM238.775 29.5723C236.508 29.5723 235.26 30.0469 235.277 30.9434C235.26 31.8223 236.508 32.2617 238.775 32.2617C241.008 32.2617 242.273 31.8223 242.273 30.9434C242.273 30.0469 241.008 29.5723 238.775 29.5723ZM237.035 35.1973H240.48V33.8613C239.953 33.9229 239.382 33.9492 238.775 33.9492C238.151 33.9492 237.571 33.9229 237.035 33.8438V35.1973ZM260.783 27.6387V37.4824H258.656V33.5449H257.408V37.3066H255.316V27.8496H257.408V31.7344H258.656V27.6387H260.783ZM254.807 29.1504V30.9258H246.949V29.1504H249.779V27.709H252.012V29.1504H254.807ZM250.904 31.4355C252.943 31.4355 254.385 32.5605 254.402 34.2305C254.385 35.8652 252.943 37.0254 250.904 37.0254C248.9 37.0254 247.441 35.8652 247.441 34.2305C247.441 32.5605 248.9 31.4355 250.904 31.4355ZM250.904 33.0352C250.025 33.0352 249.445 33.4395 249.445 34.2305C249.445 34.9863 250.025 35.4082 250.904 35.4082C251.783 35.4082 252.363 34.9863 252.381 34.2305C252.363 33.4395 251.783 33.0352 250.904 33.0352ZM253.172 38.3086C253.154 39.4775 253.673 40.6816 254.947 41.4727C256.213 40.6377 256.775 39.3721 256.793 38.3086V37.9746H259.025V38.3086C259.008 39.8027 259.904 41.209 262.031 41.7539L260.994 43.4238C259.447 42.958 258.428 42.0264 257.883 40.8398C257.355 42.0176 256.433 43.0547 254.982 43.582C253.488 43.0635 252.548 42.0879 252.047 40.9102C251.458 42.0352 250.456 42.9492 248.988 43.4238L247.934 41.7539C250.008 41.1562 250.939 39.7148 250.939 38.3086V37.9746H253.172V38.3086ZM275.215 27.6211V33.5625H277.57V35.3906H275.215V43.6523H272.965V27.6211H275.215ZM270.732 29.0977V30.9082H265.459V37.9219C267.779 37.8955 269.695 37.79 271.822 37.4121L272.068 39.293C269.59 39.7148 267.41 39.7852 264.58 39.7676H263.227V29.0977H270.732ZM286.412 28.9219V30.1348H289.4V27.6387H291.633V39.2754H289.4V35.3555H286.412V36.709H278.818V28.9219H286.412ZM281.051 30.6973V34.9688H284.215V30.6973H281.051ZM291.967 41.543V43.3359H280.98V38.168H283.248V41.543H291.967ZM286.412 33.5801H289.4V31.9453H286.412V33.5801ZM296.502 37.9922C296.52 35.8125 297.1 35.127 298.154 34.4766C298.91 33.9844 299.49 33.4395 299.49 32.6309C299.49 31.752 298.805 31.1719 297.961 31.1719C297.135 31.1719 296.379 31.7168 296.344 32.7539H293.848C293.9 30.2754 295.729 29.0977 297.979 29.0977C300.422 29.0977 302.162 30.3809 302.162 32.543C302.162 33.9844 301.424 34.916 300.264 35.6016C299.279 36.1992 298.84 36.7617 298.822 37.9922V38.1855H296.502V37.9922ZM297.715 42.1582C296.889 42.1582 296.221 41.4902 296.238 40.6816C296.221 39.873 296.889 39.2227 297.715 39.2227C298.488 39.2227 299.174 39.873 299.174 40.6816C299.174 41.4902 298.488 42.1582 297.715 42.1582Z" fill="black"/>
<path d="M34.1045 59.2139H33.4365L33.4893 57.9043L32.3818 58.6074L32.0479 58.0273L33.2168 57.4297L32.0479 56.8232L32.3818 56.2432L33.4893 56.9463L33.4365 55.6367H34.1045L34.043 56.9463L35.1504 56.2432L35.4932 56.8232L34.3242 57.4297L35.4932 58.0273L35.1504 58.6074L34.043 57.9043L34.1045 59.2139ZM36.5566 62V61.2969L38.7627 59.0732C39.457 58.3438 39.8086 57.9395 39.8086 57.3857C39.8086 56.7617 39.2988 56.3574 38.6309 56.3574C37.9277 56.3574 37.4707 56.8057 37.4707 57.4824H36.5566C36.5479 56.3223 37.4355 55.5488 38.6484 55.5488C39.8789 55.5488 40.7227 56.3223 40.7314 57.3594C40.7227 58.0713 40.3887 58.6338 39.1934 59.8115L37.9014 61.1211V61.1738H40.8369V62H36.5566ZM44.124 62.0879C42.6475 62.0879 41.7861 60.9014 41.7861 58.8184C41.7861 56.7529 42.665 55.5488 44.124 55.5488C45.583 55.5488 46.4619 56.7529 46.4619 58.8184C46.4619 60.9014 45.5918 62.0879 44.124 62.0879ZM44.124 61.2529C44.9854 61.2529 45.4951 60.4092 45.4951 58.8184C45.4951 57.2363 44.9766 56.3662 44.124 56.3662C43.2715 56.3662 42.7529 57.2363 42.7529 58.8184C42.7529 60.4092 43.2627 61.2529 44.124 61.2529ZM47.4639 62V61.2969L49.6699 59.0732C50.3643 58.3438 50.7158 57.9395 50.7158 57.3857C50.7158 56.7617 50.2061 56.3574 49.5381 56.3574C48.835 56.3574 48.3779 56.8057 48.3779 57.4824H47.4639C47.4551 56.3223 48.3428 55.5488 49.5557 55.5488C50.7861 55.5488 51.6299 56.3223 51.6387 57.3594C51.6299 58.0713 51.2959 58.6338 50.1006 59.8115L48.8086 61.1211V61.1738H51.7441V62H47.4639ZM54.9785 62.0879C53.7744 62.0879 52.8691 61.3496 52.8252 60.3389H53.7656C53.8184 60.8838 54.3369 61.2793 54.9785 61.2793C55.752 61.2793 56.3057 60.7168 56.3057 59.9609C56.3057 59.1875 55.7344 58.625 54.9346 58.6162C54.4248 58.6162 54.0381 58.7832 53.8184 59.1787H52.9043L53.3174 55.6367H56.9209V56.4629H54.1172L53.9062 58.2471H53.9678C54.2314 57.9922 54.6797 57.8164 55.1631 57.8164C56.3584 57.8164 57.2461 58.7041 57.2461 59.9346C57.2461 61.1914 56.3057 62.0879 54.9785 62.0879ZM64.5674 54.8809V60.6992H63.7324V58.0186H61.5703V57.3506H63.7324V56.5244H61.5703V55.8564H63.7324V54.8809H64.5674ZM64.7695 61.9033V62.5801H59.4346V60.1895H60.2783V61.9033H64.7695ZM59.2939 55.4258V58.8711C60.3398 58.8711 61.333 58.8052 62.458 58.5986L62.5459 59.2842C61.2979 59.5215 60.2344 59.5654 59.0742 59.5742H58.4678V55.4258H59.2939ZM70.667 55.6367V62H69.6914V56.6035H69.6562L68.1357 57.5967V56.6738L69.7178 55.6367H70.667ZM74.499 62.0879C73.0225 62.0879 72.1611 60.9014 72.1611 58.8184C72.1611 56.7529 73.04 55.5488 74.499 55.5488C75.958 55.5488 76.8369 56.7529 76.8369 58.8184C76.8369 60.9014 75.9668 62.0879 74.499 62.0879ZM74.499 61.2529C75.3604 61.2529 75.8701 60.4092 75.8701 58.8184C75.8701 57.2363 75.3516 56.3662 74.499 56.3662C73.6465 56.3662 73.1279 57.2363 73.1279 58.8184C73.1279 60.4092 73.6377 61.2529 74.499 61.2529ZM84.1143 54.8809V59.4951H83.2793V59.1172H81.7412V58.5898H83.2793V54.8809H84.1143ZM77.5488 57.7812C79.0693 57.79 81.0029 57.7725 82.6992 57.5879L82.7432 58.124C82.0005 58.2251 81.2314 58.2866 80.4756 58.3262V59.5127H79.6494V58.3613C78.9375 58.3789 78.2607 58.3833 77.6455 58.3789L77.5488 57.7812ZM84.1143 59.7588V61.4551H79.5791V62.0615H84.3516V62.668H78.7617V60.9014H83.2881V60.3389H78.7266V59.7588H84.1143ZM80.1064 55.0127C81.2754 55.0127 82.0664 55.4785 82.0752 56.1992C82.0664 56.9375 81.2754 57.377 80.1064 57.377C78.9111 57.377 78.1289 56.9375 78.1377 56.1992C78.1289 55.4785 78.9111 55.0127 80.1064 55.0127ZM80.1064 55.5752C79.377 55.5752 78.9199 55.8213 78.9199 56.1992C78.9199 56.5771 79.377 56.8145 80.1064 56.8145C80.8184 56.8145 81.2842 56.5771 81.2842 56.1992C81.2842 55.8213 80.8184 55.5752 80.1064 55.5752ZM94.0898 54.8721V62.7471H93.2461V54.8721H94.0898ZM91.7432 55.7158C91.7432 58.0186 90.7588 60.0225 88.0605 61.3145L87.6211 60.6377C89.7173 59.6401 90.7368 58.2207 90.8994 56.3838H87.999V55.7158H91.7432ZM101.859 55.25V55.918H99.46C99.5083 56.7749 100.642 57.5308 102.105 57.7109L101.789 58.3701C100.44 58.1943 99.3325 57.5659 98.9062 56.6826C98.48 57.5615 97.377 58.1943 96.0322 58.3701L95.7158 57.7109C97.188 57.5308 98.3086 56.7749 98.3525 55.918H95.9795V55.25H101.859ZM102.519 58.8799V59.5566H99.3896V61.0859H98.5635V59.5566H95.3115V58.8799H102.519ZM101.719 61.9033V62.5801H96.208V60.3301H97.043V61.9033H101.719ZM109.33 55.5664C109.321 56.6123 110.604 57.5967 112.151 57.7988L111.826 58.4844C110.539 58.2778 109.405 57.6099 108.899 56.6826C108.381 57.6143 107.251 58.2778 105.973 58.4844L105.639 57.7988C107.186 57.5967 108.451 56.6211 108.46 55.5664V55.1357H109.33V55.5664ZM112.477 59.2578V59.9434H109.277V62.7471H108.46V59.9434H105.296V59.2578H112.477ZM119.604 59.9434V62.7471H118.77V60.6201H114.27V59.9434H119.604ZM119.604 54.8721V59.5391H118.77V54.8721H119.604ZM115.333 55.3291C116.537 55.3291 117.425 56.1025 117.425 57.21C117.425 58.3174 116.537 59.0908 115.333 59.0908C114.129 59.0908 113.232 58.3174 113.232 57.21C113.232 56.1025 114.129 55.3291 115.333 55.3291ZM115.333 56.041C114.586 56.041 114.05 56.5068 114.05 57.21C114.05 57.9219 114.586 58.3877 115.333 58.3789C116.071 58.3877 116.607 57.9219 116.607 57.21C116.607 56.5068 116.071 56.041 115.333 56.041ZM128.051 58.4316V59.0557H126.161V59.6885H127.163V61.4199H122.54V62.0791H127.409V62.668H121.705V60.8662H126.337V60.2861H121.696V59.6885H122.742V59.0557H120.844V58.4316H128.051ZM127.146 55.0742V56.7705H122.593V57.3506H127.277V57.9395H121.767V56.2168H126.311V55.6543H121.749V55.0742H127.146ZM123.568 59.6885H125.335V59.0557H123.568V59.6885ZM137.376 54.8721V62.7471H136.532V54.8721H137.376ZM135.029 55.7158C135.029 58.0186 134.045 60.0225 131.347 61.3145L130.907 60.6377C133.003 59.6401 134.023 58.2207 134.186 56.3838H131.285V55.7158H135.029ZM145.146 55.25V55.918H142.746C142.794 56.7749 143.928 57.5308 145.392 57.7109L145.075 58.3701C143.726 58.1943 142.619 57.5659 142.192 56.6826C141.766 57.5615 140.663 58.1943 139.318 58.3701L139.002 57.7109C140.474 57.5308 141.595 56.7749 141.639 55.918H139.266V55.25H145.146ZM145.805 58.8799V59.5566H142.676V61.0859H141.85V59.5566H138.598V58.8799H145.805ZM145.005 61.9033V62.5801H139.494V60.3301H140.329V61.9033H145.005ZM149.971 55.3467C151.623 55.3467 152.88 56.2168 152.88 57.5439C152.88 58.8711 151.623 59.75 149.971 59.7412C148.318 59.75 147.07 58.8711 147.07 57.5439C147.07 56.2168 148.318 55.3467 149.971 55.3467ZM149.971 56.0234C148.767 56.0146 147.861 56.6299 147.87 57.5439C147.861 58.4668 148.767 59.0557 149.971 59.0557C151.175 59.0557 152.071 58.4668 152.071 57.5439C152.071 56.6299 151.175 56.0146 149.971 56.0234ZM153.592 61.0332V61.7275H146.385V61.0332H153.592ZM161.37 61.1035V61.8066H154.163V61.1035H157.336V59.7236H155.042V57.2188H159.665V56.1113H155.024V55.4258H160.491V57.8867H155.868V59.0381H160.676V59.7236H158.162V61.1035H161.37ZM166.872 56.3135C166.872 57.3682 167.61 58.3613 168.806 58.7656L168.375 59.4248C167.492 59.1128 166.837 58.4844 166.485 57.6934C166.143 58.5767 165.466 59.2666 164.543 59.6094L164.077 58.9502C165.325 58.5195 166.046 57.4648 166.046 56.2871V55.3555H166.872V56.3135ZM170.326 54.8633V57.2363H171.469V57.9482H170.326V60.6729H169.491V54.8633H170.326ZM170.669 61.9033V62.5801H165.343V60.1104H166.195V61.9033H170.669ZM178.482 54.8721V59.5566H177.647V57.5615H176.18V56.876H177.647V54.8721H178.482ZM175.846 59.7764C177.498 59.7764 178.509 60.3213 178.509 61.2617C178.509 62.2021 177.498 62.7383 175.846 62.7471C174.193 62.7383 173.174 62.2021 173.183 61.2617C173.174 60.3213 174.193 59.7764 175.846 59.7764ZM175.846 60.4268C174.694 60.4268 174.009 60.7256 174.009 61.2617C174.009 61.7891 174.694 62.0967 175.846 62.0879C176.997 62.0967 177.683 61.7891 177.683 61.2617C177.683 60.7256 176.997 60.4268 175.846 60.4268ZM174.738 56.2607C174.738 57.2627 175.45 58.2295 176.637 58.6338L176.206 59.293C175.323 58.9854 174.672 58.3569 174.334 57.5791C173.987 58.4624 173.297 59.1699 172.356 59.5127L171.917 58.8447C173.139 58.4229 173.886 57.3594 173.886 56.2695V56.0938H172.181V55.417H176.426V56.0938H174.738V56.2607ZM184.283 57.3945V58.0713H182.745V59.0645C183.444 59.0337 184.138 58.9854 184.784 58.915L184.846 59.5303C183.167 59.7588 181.321 59.8027 179.845 59.8027L179.73 59.1348C180.403 59.1304 181.154 59.1216 181.919 59.0996V58.0713H180.434V55.373H184.213V56.0498H181.269V57.3945H184.283ZM186.226 54.8721V60.7783H185.391V54.8721H186.226ZM186.472 61.9033V62.5801H181.031V60.3564H181.866V61.9033H186.472ZM196.438 54.8721V62.7471H195.647V54.8721H196.438ZM194.83 55.0742V62.3604H194.039V59.6797H192.694V58.9941H194.039V57.7109H192.826C192.444 59.0337 191.604 60.1807 190.119 61.0684L189.627 60.4707C191.297 59.4775 192.101 58.1548 192.246 56.5332H190.014V55.8477H193.072C193.072 56.252 193.042 56.6431 192.976 57.0254H194.039V55.0742H194.83ZM200.183 56.3135C200.183 57.3682 200.921 58.3613 202.116 58.7656L201.686 59.4248C200.802 59.1128 200.147 58.4844 199.796 57.6934C199.453 58.5767 198.776 59.2666 197.854 59.6094L197.388 58.9502C198.636 58.5195 199.356 57.4648 199.356 56.2871V55.3555H200.183V56.3135ZM203.637 54.8633V57.2363H204.779V57.9482H203.637V60.6729H202.802V54.8633H203.637ZM203.979 61.9033V62.5801H198.653V60.1104H199.506V61.9033H203.979ZM213.612 54.8721V56.6299H214.755V57.3242H213.612V59.1523H212.777V54.8721H213.612ZM211.45 55.3203C211.45 57.3418 210.088 58.6777 207.732 59.2314L207.425 58.5547C209.332 58.1196 210.4 57.1748 210.536 56.0059H207.785V55.3203H211.45ZM209.042 59.5479V60.4355H210.264V59.5479H211.028V62.0703C211.947 61.6704 212.373 60.8354 212.373 60.1104V59.46H213.173V60.084C213.173 60.8574 213.604 61.6924 214.518 62.0791L214.078 62.7119C213.441 62.4307 213.015 61.9341 212.777 61.3496C212.531 61.9297 212.105 62.4307 211.468 62.7119L211.028 62.0879V62.6328H208.269V59.5479H209.042ZM209.042 61.9824H210.264V61.0684H209.042V61.9824ZM221.733 54.8721V59.0996H220.898V54.8721H221.733ZM217.4 59.4775V60.3652H220.907V59.4775H221.733V62.6504H216.583V59.4775H217.4ZM217.4 61.9648H220.907V61.0244H217.4V61.9648ZM217.462 55.2324C218.666 55.2324 219.554 55.9795 219.554 57.0605C219.554 58.1416 218.666 58.8887 217.462 58.8799C216.258 58.8887 215.361 58.1416 215.361 57.0605C215.361 55.9795 216.258 55.2324 217.462 55.2324ZM217.462 55.9355C216.715 55.9268 216.179 56.3926 216.179 57.0605C216.179 57.7373 216.715 58.1943 217.462 58.1943C218.2 58.1943 218.736 57.7373 218.736 57.0605C218.736 56.3926 218.2 55.9268 217.462 55.9355ZM229.521 54.8721V62.7471H228.686V54.8721H229.521ZM224.291 55.6367V60.0225C225.438 60.0137 226.646 59.9214 227.912 59.6621L228.026 60.3652C226.629 60.6465 225.363 60.7432 224.124 60.7432H223.465V55.6367H224.291ZM236.895 54.8721V57.9219H238.16V58.6074H236.895V62.7646H236.06V54.8721H236.895ZM234.776 55.6279V56.3047H231.929V60.1104C233.251 60.106 234.245 60.0488 235.365 59.8467L235.471 60.5498C234.24 60.7695 233.194 60.8135 231.727 60.8047H231.094V55.6279H234.776ZM239.435 62.0615C239.092 62.0615 238.802 61.7803 238.811 61.4375C238.802 61.0947 239.092 60.8135 239.435 60.8135C239.769 60.8135 240.059 61.0947 240.059 61.4375C240.059 61.7803 239.769 62.0615 239.435 62.0615ZM34.1045 69.2139H33.4365L33.4893 67.9043L32.3818 68.6074L32.0479 68.0273L33.2168 67.4297L32.0479 66.8232L32.3818 66.2432L33.4893 66.9463L33.4365 65.6367H34.1045L34.043 66.9463L35.1504 66.2432L35.4932 66.8232L34.3242 67.4297L35.4932 68.0273L35.1504 68.6074L34.043 67.9043L34.1045 69.2139ZM38.0508 65.1709V66.1025H41.6982V65.1709H42.5332V68.3525H40.2832V69.126H43.4648V69.8115H36.2842V69.126H39.457V68.3525H37.2246V65.1709H38.0508ZM38.0508 67.6758H41.6982V66.7529H38.0508V67.6758ZM42.6562 71.9033V72.5801H37.1895V70.374H38.0332V71.9033H42.6562ZM49.002 67.1924C49.002 68.4404 49.8193 69.8291 51.0146 70.3916L50.54 71.042C49.6567 70.6157 48.958 69.728 48.6064 68.6953C48.2417 69.8247 47.5034 70.7959 46.6025 71.2441L46.1104 70.585C47.3057 70.0137 48.1758 68.5283 48.1758 67.1924V66.3574H46.4004V65.6631H50.7158V66.3574H49.002V67.1924ZM52.3945 64.8721V67.9922H53.6602V68.6953H52.3945V72.7471H51.5596V64.8721H52.3945ZM61.2451 71.1035V71.8066H54.0381V71.1035H56.0068V69.7148H54.917V67.21H59.54V66.1113H54.8994V65.4258H60.3662V67.8867H55.7432V69.0293H60.5508V69.7148H59.3555V71.1035H61.2451ZM56.8154 71.1035H58.5381V69.7148H56.8154V71.1035ZM68.1885 67.1748V67.8428H62.7656V65.1533H63.5918V67.1748H68.1885ZM69.0146 68.8359V69.5039H61.8076V68.8359H69.0146ZM68.2412 71.877V72.5625H62.7041V70.251H63.5391V71.877H68.2412ZM76.1777 65.7158V66.1992C76.1777 66.8584 76.1777 67.8779 75.9492 69.2842L75.123 69.2227C75.3208 67.9614 75.3428 67.0518 75.3516 66.3926H72.1523V65.7158H76.1777ZM74.1562 67.9658V70.3213C74.9956 70.2949 75.8481 70.2378 76.6348 70.1367L76.6787 70.7607C75.0352 71.0244 73.207 71.0596 71.8096 71.0508L71.7129 70.374C72.2051 70.3696 72.7544 70.3652 73.3301 70.3477V67.9658H74.1562ZM77.9268 64.8721V68.124H79.1309V68.8359H77.9268V72.7471H77.083V64.8721H77.9268ZM86.127 64.8721V72.7471H85.3008V68.6777H83.5342V67.9922H85.3008V64.8721H86.127ZM83.5605 65.7158C83.5518 68.001 82.6641 69.9609 79.9922 71.2881L79.5527 70.6289C81.6401 69.6094 82.5674 68.1899 82.7168 66.3838H79.9043V65.7158H83.5605ZM96.0674 64.8721V68.9238H95.2412V64.8721H96.0674ZM96.0762 69.3018V71.2705H91.7344V72H96.3398V72.668H90.9258V70.6377H95.25V69.9609H90.8994V69.3018H96.0762ZM92.4111 65.6895C92.4023 66.7441 93.167 67.7021 94.3711 68.0801L93.958 68.7305C93.0396 68.4316 92.3496 67.8076 91.998 67.0078C91.6377 67.8691 90.9346 68.5547 89.9941 68.8799L89.5723 68.2207C90.8027 67.8076 91.5586 66.7793 91.5586 65.6895V65.083H92.4111V65.6895ZM103.89 64.8809V70.6465H103.055V67.6846H101.552V67.0078H103.055V64.8809H103.89ZM104.101 71.9033V72.5801H98.7744V70.1279H99.6094V71.9033H104.101ZM100.146 66.4717C100.146 67.4561 100.857 68.4404 102.044 68.8359L101.613 69.5039C100.73 69.1919 100.075 68.5591 99.7324 67.7812C99.3896 68.647 98.6997 69.3457 97.7637 69.6797L97.333 69.0029C98.5459 68.5898 99.293 67.5527 99.293 66.4717V66.1641H97.5879V65.4785H101.833V66.1641H100.146V66.4717ZM111.334 65.5664C111.325 66.6123 112.608 67.5967 114.155 67.7988L113.83 68.4844C112.542 68.2778 111.409 67.6099 110.903 66.6826C110.385 67.6143 109.255 68.2778 107.977 68.4844L107.643 67.7988C109.189 67.5967 110.455 66.6211 110.464 65.5664V65.1357H111.334V65.5664ZM114.48 69.2578V69.9434H111.281V72.7471H110.464V69.9434H107.3V69.2578H114.48ZM121.608 69.9434V72.7471H120.773V70.6201H116.273V69.9434H121.608ZM121.608 64.8721V69.5391H120.773V64.8721H121.608ZM117.337 65.3291C118.541 65.3291 119.429 66.1025 119.429 67.21C119.429 68.3174 118.541 69.0908 117.337 69.0908C116.133 69.0908 115.236 68.3174 115.236 67.21C115.236 66.1025 116.133 65.3291 117.337 65.3291ZM117.337 66.041C116.59 66.041 116.054 66.5068 116.054 67.21C116.054 67.9219 116.59 68.3877 117.337 68.3789C118.075 68.3877 118.611 67.9219 118.611 67.21C118.611 66.5068 118.075 66.041 117.337 66.041ZM130.055 68.4316V69.0557H128.165V69.6885H129.167V71.4199H124.544V72.0791H129.413V72.668H123.709V70.8662H128.341V70.2861H123.7V69.6885H124.746V69.0557H122.848V68.4316H130.055ZM129.149 65.0742V66.7705H124.597V67.3506H129.281V67.9395H123.771V66.2168H128.314V65.6543H123.753V65.0742H129.149ZM125.572 69.6885H127.339V69.0557H125.572V69.6885ZM139.38 64.8721V72.7471H138.536V64.8721H139.38ZM137.033 65.7158C137.033 68.0186 136.049 70.0225 133.351 71.3145L132.911 70.6377C135.007 69.6401 136.027 68.2207 136.189 66.3838H133.289V65.7158H137.033ZM146.798 64.8809V67.2012H147.94V67.9043H146.798V70.6641H145.963V64.8809H146.798ZM147.132 71.9033V72.5801H141.806V70.0928H142.641V71.9033H147.132ZM141.735 65.4434V66.7002H143.801V65.4434H144.627V69.3633H140.918V65.4434H141.735ZM141.735 68.6953H143.801V67.3594H141.735V68.6953ZM154.91 64.8721V72.7646H154.075V64.8721H154.91ZM150.7 65.4609C151.869 65.4609 152.73 66.5332 152.73 68.2207C152.73 69.917 151.869 70.9893 150.7 70.9893C149.514 70.9893 148.661 69.917 148.661 68.2207C148.661 66.5332 149.514 65.4609 150.7 65.4609ZM150.7 66.208C149.971 66.208 149.47 66.9814 149.47 68.2207C149.47 69.4688 149.971 70.2422 150.7 70.2422C151.421 70.2422 151.922 69.4688 151.922 68.2207C151.922 66.9814 151.421 66.208 150.7 66.208ZM160.131 65.6279V66.7266H161.906V64.8721H162.732V72.7646H161.906V69.5654H160.131V70.7783H156.475V65.6279H160.131ZM157.301 66.2783V70.1104H159.313V66.2783H157.301ZM160.131 68.8887H161.906V67.4121H160.131V68.8887ZM170.273 65.6279V70.8047H166.582V65.6279H170.273ZM167.408 66.2871V70.1279H169.465V66.2871H167.408ZM172.664 64.8721V72.7646H171.829V64.8721H172.664ZM177.138 65.6982V68.5459H174.976V70.207C175.833 70.2026 176.641 70.1631 177.586 70.0137L177.656 70.6816C176.558 70.875 175.688 70.9014 174.703 70.9102H174.167V67.8604H176.329V66.3838H174.158V65.6982H177.138ZM180.68 64.8721V72.7471H179.88V68.6162H178.86V72.3428H178.096V65.0303H178.86V67.9395H179.88V64.8721H180.68ZM187.931 65.5664C187.922 66.6123 189.205 67.5967 190.752 67.7988L190.427 68.4844C189.139 68.2778 188.005 67.6099 187.5 66.6826C186.981 67.6143 185.852 68.2778 184.573 68.4844L184.239 67.7988C185.786 67.5967 187.052 66.6211 187.061 65.5664V65.1357H187.931V65.5664ZM191.077 69.2578V69.9434H187.878V72.7471H187.061V69.9434H183.896V69.2578H191.077ZM198.205 69.9434V72.7471H197.37V70.6201H192.87V69.9434H198.205ZM198.205 64.8721V69.5391H197.37V64.8721H198.205ZM193.934 65.3291C195.138 65.3291 196.025 66.1025 196.025 67.21C196.025 68.3174 195.138 69.0908 193.934 69.0908C192.729 69.0908 191.833 68.3174 191.833 67.21C191.833 66.1025 192.729 65.3291 193.934 65.3291ZM193.934 66.041C193.187 66.041 192.65 66.5068 192.65 67.21C192.65 67.9219 193.187 68.3877 193.934 68.3789C194.672 68.3877 195.208 67.9219 195.208 67.21C195.208 66.5068 194.672 66.041 193.934 66.041ZM203.039 65.0039C204.814 65.0039 205.852 65.4785 205.852 66.3574C205.852 67.2363 204.814 67.7197 203.039 67.7197C201.264 67.7197 200.227 67.2363 200.227 66.3574C200.227 65.4785 201.264 65.0039 203.039 65.0039ZM203.039 65.6191C201.782 65.6191 201.088 65.8916 201.097 66.3574C201.088 66.8408 201.782 67.0957 203.039 67.0957C204.296 67.0957 204.99 66.8408 204.99 66.3574C204.99 65.8916 204.296 65.6191 203.039 65.6191ZM206.634 68.2031V68.8711H199.453V68.2031H206.634ZM205.729 69.4775V71.3232H201.141V72.0264H205.948V72.668H200.323V70.7168H204.902V70.1016H200.314V69.4775H205.729ZM216.636 71.0771V71.7715H209.429V71.0771H212.602V69.46H210.255V65.4082H211.09V66.7617H214.957V65.4082H215.783V69.46H213.428V71.0771H216.636ZM211.09 68.7832H214.957V67.4385H211.09V68.7832ZM219.958 66.3223C219.958 67.3242 220.652 68.2383 221.848 68.6162L221.452 69.2666C220.556 68.981 219.901 68.3877 219.554 67.6406C219.211 68.502 218.521 69.1831 217.576 69.5127L217.146 68.8447C218.376 68.4404 219.114 67.4209 219.123 66.3311V66.1113H217.392V65.4346H221.654V66.1113H219.958V66.3223ZM223.395 64.8721V66.8232H224.537V67.5088H223.395V69.6006H222.56V64.8721H223.395ZM220.854 69.7939C222.48 69.7939 223.465 70.3301 223.465 71.2529C223.465 72.1846 222.48 72.7383 220.854 72.7295C219.211 72.7383 218.209 72.1846 218.209 71.2529C218.209 70.3301 219.211 69.7939 220.854 69.7939ZM220.854 70.4531C219.712 70.4531 219.035 70.7432 219.044 71.2529C219.035 71.7803 219.712 72.0703 220.854 72.0703C221.988 72.0703 222.647 71.7803 222.647 71.2529C222.647 70.7432 221.988 70.4531 220.854 70.4531ZM231.12 64.8721V68.0625H232.386V68.7568H231.12V72.7471H230.294V64.8721H231.12ZM229.608 66.1025V66.7881H224.941V66.1025H226.884V64.9775H227.719V66.1025H229.608ZM227.306 67.3682C228.431 67.3682 229.257 68.124 229.266 69.1963C229.257 70.2773 228.431 71.0244 227.306 71.0332C226.172 71.0244 225.346 70.2773 225.346 69.1963C225.346 68.124 226.172 67.3682 227.306 67.3682ZM227.306 68.0537C226.638 68.0537 226.137 68.5195 226.146 69.1963C226.137 69.8818 226.638 70.3389 227.306 70.3301C227.974 70.3389 228.466 69.8818 228.466 69.1963C228.466 68.5195 227.974 68.0537 227.306 68.0537ZM235.664 67.1924C235.664 68.5107 236.525 69.873 237.738 70.3916L237.281 71.042C236.354 70.6333 235.616 69.7676 235.251 68.7129C234.886 69.8379 234.144 70.7959 233.229 71.2441L232.746 70.585C233.933 70.0312 234.812 68.5459 234.82 67.1924V66.3574H233.019V65.6631H237.457V66.3574H235.664V67.1924ZM239.285 64.8721V72.7471H238.45V64.8721H239.285ZM38.4199 75.2939C39.6152 75.2939 40.4854 76.0586 40.4854 77.1221C40.4854 78.1943 39.6152 78.9502 38.4199 78.9502C37.2334 78.9502 36.3457 78.1943 36.3545 77.1221C36.3457 76.0586 37.2334 75.2939 38.4199 75.2939ZM38.4199 75.9883C37.708 75.9883 37.1631 76.4541 37.1631 77.1221C37.1631 77.79 37.708 78.2646 38.4199 78.2646C39.1406 78.2646 39.6768 77.79 39.6768 77.1221C39.6768 76.4541 39.1406 75.9883 38.4199 75.9883ZM42.4189 74.8721V76.5947H43.5615V77.2891H42.4189V78.792H41.584V74.8721H42.4189ZM37.8398 79.6094V81.8506C38.3013 81.8286 38.833 81.7627 39.334 81.5957L39.457 82.2549C38.7275 82.501 38.0156 82.5361 37.4268 82.5361H37.0225V79.6094H37.8398ZM43.1572 79.6357V80.2773H39.1846V79.6357H40.7754V78.9941H41.5928V79.6357H43.1572ZM41.1709 80.5059C42.041 80.5059 42.6562 80.9453 42.6562 81.6309C42.6562 82.3076 42.041 82.7383 41.1709 82.7295C40.2832 82.7383 39.6768 82.3076 39.6855 81.6309C39.6768 80.9453 40.2832 80.5059 41.1709 80.5059ZM41.1709 81.1035C40.7314 81.1035 40.4238 81.3057 40.4238 81.6309C40.4238 81.9473 40.7314 82.1494 41.1709 82.1494C41.6016 82.1494 41.9092 81.9473 41.9092 81.6309C41.9092 81.3057 41.6016 81.1035 41.1709 81.1035ZM45.7236 79.5918V80.4268H49.4238V79.5918H50.2588V82.6504H44.8975V79.5918H45.7236ZM45.7236 81.9824H49.4238V81.0771H45.7236V81.9824ZM51.1904 78.4053V79.0996H44.0098V78.4053H51.1904ZM48.0264 75.2939C48.0264 76.1992 49.2832 77.0781 50.7949 77.2627L50.4961 77.9219C49.2173 77.7417 48.1055 77.1396 47.6045 76.3047C47.0903 77.144 45.9741 77.7417 44.7129 77.9219L44.3965 77.2627C45.9258 77.0693 47.1738 76.2256 47.1738 75.2939V74.96H48.0264V75.2939ZM58.3271 74.8721V82.7471H57.4922V74.8721H58.3271ZM53.0977 75.6367V80.0225C54.2446 80.0137 55.4531 79.9214 56.7188 79.6621L56.833 80.3652C55.4355 80.6465 54.1699 80.7432 52.9307 80.7432H52.2715V75.6367H53.0977ZM65.7012 74.8721V77.9219H66.9668V78.6074H65.7012V82.7646H64.8662V74.8721H65.7012ZM63.583 75.6279V76.3047H60.7354V80.1104C62.0581 80.106 63.0513 80.0488 64.1719 79.8467L64.2773 80.5498C63.0469 80.7695 62.001 80.8135 60.5332 80.8047H59.9004V75.6279H63.583ZM68.2412 82.0615C67.8984 82.0615 67.6084 81.7803 67.6172 81.4375C67.6084 81.0947 67.8984 80.8135 68.2412 80.8135C68.5752 80.8135 68.8652 81.0947 68.8652 81.4375C68.8652 81.7803 68.5752 82.0615 68.2412 82.0615ZM79.0078 79.6006V80.2861H75.8086V82.7471H74.9824V80.2861H71.8008V79.6006H79.0078ZM78.208 78.2031V78.8711H72.75V75.2236H78.1201V75.8916H73.5674V76.7002H77.9443V77.3506H73.5674V78.2031H78.208ZM82.3301 77.1924C82.3301 78.4404 83.1475 79.8291 84.3428 80.3916L83.8682 81.042C82.9849 80.6157 82.2861 79.728 81.9346 78.6953C81.5698 79.8247 80.8315 80.7959 79.9307 81.2441L79.4385 80.585C80.6338 80.0137 81.5039 78.5283 81.5039 77.1924V76.3574H79.7285V75.6631H84.0439V76.3574H82.3301V77.1924ZM85.7227 74.8721V77.9922H86.9883V78.6953H85.7227V82.7471H84.8877V74.8721H85.7227ZM93.7383 77.1748V77.8428H88.3154V75.1533H89.1416V77.1748H93.7383ZM94.5645 78.8359V79.5039H87.3574V78.8359H94.5645ZM93.791 81.877V82.5625H88.2539V80.251H89.0889V81.877H93.791ZM103.89 74.8809V80.8486H103.055V80.0928H101.473V79.5039H103.055V74.8809H103.89ZM104.083 81.9033V82.5801H98.3965V80.2686H99.2227V81.9033H104.083ZM97.3066 78.4756C98.7656 78.4668 100.726 78.4492 102.404 78.2383L102.457 78.8359C101.785 78.9458 101.077 79.0205 100.383 79.0645V80.6025H99.5479V79.1084C98.7832 79.1436 98.0493 79.1479 97.4121 79.1436L97.3066 78.4756ZM99.8818 75.1797C101.033 75.1797 101.833 75.7334 101.833 76.5684C101.833 77.4033 101.033 77.9395 99.8818 77.9395C98.7129 77.9395 97.9219 77.4033 97.9219 76.5684C97.9219 75.7334 98.7129 75.1797 99.8818 75.1797ZM99.8818 75.8037C99.1787 75.7949 98.7041 76.0938 98.7129 76.5684C98.7041 77.0342 99.1787 77.3242 99.8818 77.3242C100.559 77.3242 101.033 77.0342 101.042 76.5684C101.033 76.0938 100.559 75.7949 99.8818 75.8037ZM111.413 75.2676V75.8652C111.413 76.4849 111.413 77.188 111.211 78.1416H112.327V78.8271H105.12V78.1416H110.367C110.578 77.2231 110.587 76.5508 110.587 75.9531H106.025V75.2676H111.413ZM111.422 79.8291V82.6504H105.999V79.8291H111.422ZM106.816 80.4883V81.9736H110.596V80.4883H106.816ZM121.468 81.9033V82.5801H116.001V80.3125H116.845V81.9033H121.468ZM122.294 79.0469V79.7324H115.096V79.0469H118.269V77.79H119.095V79.0469H122.294ZM119.104 75.3994C119.104 76.4717 120.308 77.4121 121.819 77.6318L121.494 78.2822C120.25 78.0625 119.169 77.4253 118.682 76.5156C118.185 77.4253 117.108 78.0713 115.869 78.2822L115.535 77.6318C117.038 77.3945 118.251 76.4541 118.26 75.3994V75.083H119.104V75.3994ZM129.396 74.8721V78.9238H128.569V74.8721H129.396ZM129.404 79.3018V81.2705H125.062V82H129.668V82.668H124.254V80.6377H128.578V79.9609H124.228V79.3018H129.404ZM125.739 75.6895C125.73 76.7441 126.495 77.7021 127.699 78.0801L127.286 78.7305C126.368 78.4316 125.678 77.8076 125.326 77.0078C124.966 77.8691 124.263 78.5547 123.322 78.8799L122.9 78.2207C124.131 77.8076 124.887 76.7793 124.887 75.6895V75.083H125.739V75.6895ZM138.984 74.8721V78.0098H140.206V78.7041H138.984V82.7383H138.149V74.8721H138.984ZM136.928 75.6982C136.919 77.9746 135.917 80.0049 133.324 81.2881L132.858 80.6377C134.832 79.6533 135.904 78.2295 136.075 76.3926H133.254V75.6982H136.928ZM146.991 76.999V77.6758H141.586V75.0127H142.412V76.999H146.991ZM147.817 78.5107V79.1963H140.628V78.5107H147.817ZM144.214 79.8379C145.91 79.8379 146.93 80.3564 146.93 81.2705C146.93 82.1934 145.91 82.7119 144.214 82.7119C142.509 82.7119 141.48 82.1934 141.48 81.2705C141.48 80.3564 142.509 79.8379 144.214 79.8379ZM144.214 80.4883C143.01 80.4971 142.324 80.7607 142.324 81.2705C142.324 81.7715 143.01 82.0703 144.214 82.0703C145.4 82.0703 146.095 81.7715 146.095 81.2705C146.095 80.7607 145.4 80.4971 144.214 80.4883ZM151.201 76.0498C151.201 77.1572 151.913 78.1416 153.108 78.5283L152.651 79.1787C151.786 78.8667 151.148 78.2603 150.806 77.4736C150.463 78.3745 149.777 79.0732 148.828 79.416L148.38 78.748C149.637 78.3174 150.366 77.2715 150.375 76.085V75.3115H151.201V76.0498ZM154.972 74.8721V79.5215H154.137V77.1572H152.476V76.4717H154.137V74.8721H154.972ZM152.335 79.7412C153.987 79.7412 154.998 80.2861 154.998 81.2441C154.998 82.1934 153.987 82.7383 152.335 82.7295C150.683 82.7383 149.663 82.1934 149.672 81.2441C149.663 80.2861 150.683 79.7412 152.335 79.7412ZM152.335 80.3916C151.184 80.3916 150.498 80.6992 150.498 81.2441C150.498 81.7715 151.184 82.0703 152.335 82.0703C153.486 82.0703 154.172 81.7715 154.172 81.2441C154.172 80.6992 153.486 80.3916 152.335 80.3916ZM162.706 74.8721V82.7646H161.871V74.8721H162.706ZM158.496 75.4609C159.665 75.4609 160.526 76.5332 160.526 78.2207C160.526 79.917 159.665 80.9893 158.496 80.9893C157.31 80.9893 156.457 79.917 156.457 78.2207C156.457 76.5332 157.31 75.4609 158.496 75.4609ZM158.496 76.208C157.767 76.208 157.266 76.9814 157.266 78.2207C157.266 79.4688 157.767 80.2422 158.496 80.2422C159.217 80.2422 159.718 79.4688 159.718 78.2207C159.718 76.9814 159.217 76.208 158.496 76.208ZM168.894 80.0752C168.894 80.752 169.228 81.4683 169.939 81.8945C170.665 81.4331 171.021 80.6772 171.021 80.0752V79.6973H171.838V80.0752C171.838 80.8926 172.374 81.6836 173.402 82.0176L172.989 82.6328C172.211 82.3647 171.684 81.8418 171.407 81.1914C171.157 81.8286 170.687 82.4043 169.966 82.7031C169.21 82.4175 168.731 81.8594 168.489 81.2178C168.204 81.8374 167.685 82.3604 166.942 82.6328L166.521 82.0176C167.531 81.6572 168.076 80.8398 168.085 80.0752V79.6973H168.894V80.0752ZM172.69 74.8809V79.3633H171.855V74.8809H172.69ZM168.419 75.3115C169.623 75.3115 170.511 76.0762 170.511 77.1748C170.511 78.2646 169.623 79.0205 168.419 79.0205C167.215 79.0205 166.318 78.2646 166.318 77.1748C166.318 76.0762 167.215 75.3115 168.419 75.3115ZM168.419 76.0234C167.672 76.0146 167.136 76.4805 167.136 77.1748C167.136 77.8604 167.672 78.3262 168.419 78.3262C169.157 78.3262 169.693 77.8604 169.693 77.1748C169.693 76.4805 169.157 76.0146 168.419 76.0234ZM175.652 79.5918V80.4268H179.353V79.5918H180.188V82.6504H174.826V79.5918H175.652ZM175.652 81.9824H179.353V81.0771H175.652V81.9824ZM181.119 78.4053V79.0996H173.938V78.4053H181.119ZM177.955 75.2939C177.955 76.1992 179.212 77.0781 180.724 77.2627L180.425 77.9219C179.146 77.7417 178.034 77.1396 177.533 76.3047C177.019 77.144 175.903 77.7417 174.642 77.9219L174.325 77.2627C175.854 77.0693 177.103 76.2256 177.103 75.2939V74.96H177.955V75.2939ZM188.256 74.8721V82.7471H187.421V74.8721H188.256ZM183.026 75.6367V80.0225C184.173 80.0137 185.382 79.9214 186.647 79.6621L186.762 80.3652C185.364 80.6465 184.099 80.7432 182.859 80.7432H182.2V75.6367H183.026ZM195.63 74.8721V77.9219H196.896V78.6074H195.63V82.7646H194.795V74.8721H195.63ZM193.512 75.6279V76.3047H190.664V80.1104C191.987 80.106 192.98 80.0488 194.101 79.8467L194.206 80.5498C192.976 80.7695 191.93 80.8135 190.462 80.8047H189.829V75.6279H193.512ZM198.17 82.0615C197.827 82.0615 197.537 81.7803 197.546 81.4375C197.537 81.0947 197.827 80.8135 198.17 80.8135C198.504 80.8135 198.794 81.0947 198.794 81.4375C198.794 81.7803 198.504 82.0615 198.17 82.0615Z" fill="#C6C6C6"/>
<mask id="mask0_1848_3226" style="mask-type:alpha" maskUnits="userSpaceOnUse" x="140" y="115" width="290" height="216">
<rect x="140.289" y="115.62" width="289.711" height="214.947" fill="#D9D9D9"/>
</mask>
<g mask="url(#mask0_1848_3226)">
<path d="M407.144 264.74C377.416 264.74 358.97 244.159 358.97 208.028C358.97 171.745 377.416 151.316 407.144 151.316C436.872 151.316 455.319 171.897 455.319 208.028C455.319 244.312 436.872 264.74 407.144 264.74ZM407.144 241.415C417.816 241.263 425.286 231.506 425.286 208.028C425.286 185.161 417.816 174.641 407.144 174.641C396.473 174.641 389.155 185.161 389.003 208.028C389.003 231.506 396.473 241.263 407.144 241.415Z" fill="#FCF0F0"/>
<path d="M252.711 245.684V223.121L297.379 152.841H334.12V222.968H346.926V245.684H334.12V263.216H306.374V245.684H252.711ZM281.372 222.968H306.984V183.026H306.069L281.372 222.206V222.968Z" fill="#FCF0F0"/>
<path d="M196.456 264.74C171.302 264.74 153.313 250.257 153.16 229.981H181.364C181.669 237.756 188.376 242.635 196.456 242.635C205.908 242.635 212.616 236.079 212.464 226.322C212.616 216.261 205.908 209.858 196.456 209.858C188.834 209.705 184.108 213.059 181.364 218.547H155.599L160.325 152.841H233.654V176.013H184.26L181.973 200.863H182.583C186.09 194.308 195.084 189.582 206.061 189.582C225.879 189.582 240.515 204.369 240.515 225.408C240.515 248.428 223.135 264.74 196.456 264.74Z" fill="#FCF0F0"/>
</g>
<path d="M114.227 235.896V316.381H92.9941V255.462H92.5494L74.7627 266.134V248.014L94.6616 235.896H114.227Z" fill="#F3F3F3"/>
<path d="M32.074 317.493C13.1756 317.493 -0.275552 306.932 -0.386719 292.147H20.9573C21.0685 296.927 25.7375 300.374 32.1852 300.374C38.5217 300.374 42.9683 296.705 42.9683 291.591C42.9683 286.478 37.9658 282.809 30.5177 282.809H22.4025V268.135H30.5177C37.2988 268.135 41.9678 264.578 41.8567 259.464C41.9678 254.573 37.9658 251.127 32.2963 251.127C26.071 251.127 21.6243 254.684 21.5131 259.687H1.28078C1.39195 245.124 14.2873 234.785 32.2963 234.785C49.9719 234.785 62.3114 244.679 62.3114 258.13C62.3114 267.135 55.419 273.36 45.9698 274.361V275.028C58.754 276.473 65.3129 283.476 65.3129 293.37C65.3129 307.488 51.6394 317.493 32.074 317.493Z" fill="#F3F3F3"/>
<path d="M59.2812 211.92V213.137H48.0156V211.92H59.2812ZM58.0098 216.418V217.648H49.4102V214.053H50.9277V216.418H58.0098ZM53.6348 205.932C56.3281 205.932 58.0781 206.875 58.0918 208.434C58.0781 210.006 56.3281 210.963 53.6348 210.963C50.9414 210.963 49.1777 210.006 49.1777 208.434C49.1777 206.875 50.9414 205.932 53.6348 205.932ZM53.6348 207.148C51.8438 207.148 50.75 207.613 50.7637 208.434C50.75 209.268 51.8438 209.732 53.6348 209.719C55.4395 209.732 56.5195 209.268 56.5195 208.434C56.5195 207.613 55.4395 207.148 53.6348 207.148ZM70.6836 205.535V213.301H69.2344V209.938H68.0312V212.891H66.6094V205.781H68.0312V208.707H69.2344V205.535H70.6836ZM66.1992 206.875V208.064H60.0469V206.875H62.3848V205.645H63.8887V206.875H66.1992ZM63.1367 208.57C64.709 208.57 65.8164 209.418 65.8301 210.703C65.8164 211.988 64.709 212.836 63.1367 212.836C61.5918 212.836 60.4707 211.988 60.4844 210.703C60.4707 209.418 61.5918 208.57 63.1367 208.57ZM63.1367 209.664C62.3711 209.664 61.8379 210.061 61.8379 210.703C61.8379 211.346 62.3574 211.742 63.1367 211.742C63.916 211.742 64.4492 211.346 64.4492 210.703C64.4492 210.061 63.916 209.664 63.1367 209.664ZM66.5137 213.451C69.1523 213.451 70.7383 214.258 70.752 215.68C70.7383 217.074 69.1523 217.881 66.5137 217.881C63.875 217.881 62.2754 217.074 62.2754 215.68C62.2754 214.258 63.875 213.451 66.5137 213.451ZM66.5137 214.613C64.75 214.6 63.793 214.955 63.793 215.68C63.793 216.363 64.75 216.719 66.5137 216.719C68.2637 216.719 69.2207 216.363 69.2207 215.68C69.2207 214.955 68.2637 214.6 66.5137 214.613ZM82.4414 206.396V207.627H81.3477V211.127C81.7988 211.1 82.2432 211.059 82.6738 211.004V209.896H84.3691V208.83H82.6738V207.613H84.3691V205.535H85.8867V213.109H84.3691V211.113H82.7148L82.7695 212.125C80.418 212.508 77.6836 212.562 75.7148 212.562L75.5508 211.305L76.9453 211.291V207.627H75.8652V206.396H82.4414ZM81.7031 213.328C84.3418 213.328 85.9277 214.148 85.9277 215.611C85.9277 217.033 84.3418 217.881 81.7031 217.881C79.0781 217.881 77.4922 217.033 77.5059 215.611C77.4922 214.148 79.0781 213.328 81.7031 213.328ZM81.7031 214.49C79.9805 214.49 79.0098 214.873 79.0098 215.611C79.0098 216.322 79.9805 216.705 81.7031 216.705C83.4395 216.705 84.4102 216.322 84.4102 215.611C84.4102 214.873 83.4395 214.49 81.7031 214.49ZM78.4219 211.277C78.9004 211.264 79.3926 211.243 79.8848 211.223V207.627H78.4219V211.277ZM97.5488 206.164V207.176C97.5488 208.16 97.5488 209.281 97.2891 210.73H98.9297V211.961H95.9902V214.75H94.5137V211.961H92.873V214.75H91.3828V211.961H87.6367V210.73H95.7578C96.0176 209.35 96.0312 208.297 96.0312 207.354H89.0176V206.164H97.5488ZM97.877 216.418V217.648H88.9082V213.684H90.4258V216.418H97.877ZM113.408 205.549V214.613H111.891V211.551H108.951C108.356 212.214 107.481 212.617 106.49 212.617C104.631 212.617 103.223 211.277 103.223 209.459C103.223 207.613 104.631 206.287 106.49 206.287C107.475 206.287 108.343 206.684 108.938 207.34H111.891V205.549H113.408ZM113.723 216.418V217.648H105.301V213.684H106.818V216.418H113.723ZM106.49 207.641C105.424 207.641 104.672 208.352 104.672 209.459C104.672 210.553 105.424 211.264 106.49 211.264C107.502 211.264 108.268 210.553 108.281 209.459C108.268 208.352 107.502 207.641 106.49 207.641ZM109.607 208.57C109.683 208.851 109.73 209.145 109.73 209.459C109.73 209.76 109.689 210.047 109.621 210.32H111.891V208.57H109.607ZM128.393 206.137V207.094C128.393 208.051 128.393 209.145 128.092 210.607H129.773V211.838H118.48V210.607H126.561C126.848 209.274 126.875 208.256 126.875 207.354H119.875V206.137H128.393ZM128.379 213.273V217.744H119.834V213.273H128.379ZM121.324 214.463V216.514H126.875V214.463H121.324ZM140.875 205.535V217.908H139.371V205.535H140.875ZM137.074 206.615V211.25H132.822V213.738C134.771 213.725 136.452 213.629 138.373 213.301L138.51 214.545C136.404 214.914 134.559 214.982 132.344 214.982H131.264V210.047H135.529V207.846H131.25V206.615H137.074ZM81.1152 226.258V227.488H79.4336V228.91H81.1152V230.182H79.4336V231.836H77.916V224.535H79.4336V226.258H81.1152ZM79.4336 232.369V236.895H77.916V233.6H71.2031V232.369H79.4336ZM73.1582 225.246C75.0586 225.232 76.4805 226.477 76.4941 228.213C76.4805 229.977 75.0586 231.207 73.1582 231.207C71.2441 231.207 69.8086 229.977 69.8223 228.213C69.8086 226.477 71.2441 225.232 73.1582 225.246ZM73.1582 226.531C72.0918 226.545 71.2988 227.188 71.3125 228.213C71.2988 229.266 72.0918 229.922 73.1582 229.908C74.2109 229.922 75.0039 229.266 75.0039 228.213C75.0039 227.188 74.2109 226.545 73.1582 226.531ZM88.9902 235.814C86.7344 235.814 85.1348 234.57 85.1074 232.793H87.459C87.4727 233.449 88.1289 233.914 89.0039 233.914C89.8789 233.914 90.5078 233.408 90.4941 232.697C90.5078 231.986 89.8379 231.467 88.7988 231.467H87.8418V229.799H88.7988C89.7012 229.799 90.3301 229.32 90.3301 228.609C90.3301 227.939 89.7969 227.461 89.0039 227.461C88.1973 227.461 87.5547 227.926 87.541 228.623H85.2988C85.3262 226.873 86.8848 225.643 89.0176 225.643C91.1367 225.643 92.5859 226.859 92.5723 228.473C92.5859 229.58 91.7656 230.359 90.6309 230.523V230.592C92.1484 230.77 92.9551 231.645 92.9414 232.875C92.9551 234.584 91.3008 235.814 88.9902 235.814ZM95.3066 235.814C94.623 235.814 94.0625 235.268 94.0762 234.57C94.0625 233.9 94.623 233.354 95.3066 233.354C95.9629 233.354 96.5371 233.9 96.5508 234.57C96.5371 235.268 95.9629 235.814 95.3066 235.814ZM97.9453 234.01V232.191L102.047 225.779H104.986V232.178H106.189V234.01H104.986V235.678H102.758V234.01H97.9453ZM100.27 232.178H102.799V228.254H102.717L100.27 232.096V232.178ZM110.195 230.838C108.664 230.838 107.83 229.717 107.83 228.117C107.83 226.49 108.691 225.383 110.195 225.383C111.754 225.383 112.574 226.49 112.588 228.117C112.574 229.744 111.727 230.838 110.195 230.838ZM110.195 229.498C110.77 229.498 111.057 228.951 111.057 228.117C111.057 227.283 110.797 226.709 110.195 226.723C109.648 226.723 109.361 227.311 109.361 228.117C109.361 228.951 109.662 229.498 110.195 229.498ZM117.1 236.074C115.555 236.061 114.721 234.953 114.734 233.34C114.721 231.727 115.596 230.605 117.1 230.605C118.658 230.605 119.479 231.727 119.479 233.34C119.479 234.967 118.631 236.061 117.1 236.074ZM117.1 234.721C117.674 234.721 117.947 234.174 117.961 233.34C117.947 232.506 117.688 231.945 117.1 231.945C116.539 231.945 116.252 232.533 116.252 233.34C116.252 234.174 116.566 234.721 117.1 234.721ZM109.389 235.678L116.197 225.779H117.865L111.057 235.678H109.389Z" fill="#2B2B2B"/>
<path d="M67.8592 305.071C58.5623 305.071 51.9451 299.876 51.8904 292.603H62.3904C62.4451 294.954 64.742 296.649 67.9139 296.649C71.031 296.649 73.2185 294.845 73.2185 292.329C73.2185 289.813 70.7576 288.009 67.0935 288.009H63.1014V280.79H67.0935C70.4295 280.79 72.7264 279.04 72.6717 276.524C72.7264 274.118 70.7576 272.423 67.9685 272.423C64.906 272.423 62.7185 274.173 62.6639 276.634H52.7107C52.7654 269.47 59.1092 264.384 67.9685 264.384C76.6639 264.384 82.7342 269.251 82.7342 275.868C82.7342 280.298 79.3435 283.36 74.6951 283.853V284.181C80.9842 284.892 84.2107 288.337 84.2107 293.204C84.2107 300.149 77.4842 305.071 67.8592 305.071ZM108.273 264.931V304.524H97.8279V274.556H97.6092L88.8592 279.806V270.892L98.6482 264.931H108.273Z" fill="#373737"/>
<path d="M122.949 290.675V298.821H114.803V290.675H122.949ZM117.152 292.576V296.957H120.6V292.576H117.152ZM127.758 289.277V294.161H130.051V296.118H127.758V301.654H125.372V289.277H127.758ZM128.373 304.04V305.941H116.76V300.442H119.128V304.04H128.373ZM145.168 289.296V302.101H142.782V300.759H139.538V299.137H142.782V289.296H145.168ZM145.54 304.04V305.941H132.903V300.871H135.27V298.616C133.751 298.681 132.306 298.69 131.02 298.69L130.74 296.807C133.853 296.789 138.047 296.752 141.626 296.304L141.757 298C140.414 298.224 139.026 298.383 137.656 298.485V301.71H135.27V304.04H145.54ZM136.258 289.873C138.718 289.855 140.489 291.104 140.489 292.912C140.489 294.72 138.718 295.894 136.258 295.894C133.741 295.894 131.989 294.72 131.989 292.912C131.989 291.104 133.723 289.855 136.258 289.873ZM136.258 291.607C135.046 291.607 134.226 292.073 134.245 292.912C134.226 293.732 135.046 294.179 136.258 294.179C137.395 294.179 138.215 293.732 138.234 292.912C138.215 292.073 137.395 291.607 136.258 291.607Z" fill="#2B2B2B"/>
<path d="M234.851 176.762H237.351L240.71 184.98H240.851L244.21 176.762H246.71V188.074H244.757V180.293H244.647L241.507 188.043H240.054L236.913 180.262H236.819V188.074H234.851V176.762ZM253.569 178.73C253.554 181.324 254.913 183.918 257.21 184.902L256.179 186.293C254.554 185.543 253.358 184.043 252.71 182.199C252.061 184.191 250.851 185.816 249.132 186.621L248.069 185.168C250.429 184.152 251.804 181.449 251.804 178.73V176.48H253.569V178.73ZM259.976 175.34V189.48H258.226V175.34H259.976ZM273.288 176.715V178.309C273.288 180.199 273.288 182.152 272.772 185.121L271.007 184.965C271.554 182.184 271.554 180.137 271.554 178.309V178.121H263.413V176.715H273.288ZM274.929 186.105V187.527H262.054V186.105H274.929ZM278.413 175.965V180.684C280.304 180.66 282.132 180.535 284.085 180.168L284.319 181.59C282.038 181.996 280.007 182.121 277.819 182.121H276.694V175.965H278.413ZM287.71 175.34V182.543H285.976V178.855H282.288V177.465H285.976V175.34H287.71ZM287.71 183.121V186.809H280.163V187.887H288.116V189.293H278.429V185.48H285.976V184.496H278.413V183.121H287.71ZM305.335 175.355V185.715H303.601V182.215H300.241C299.561 182.973 298.561 183.434 297.429 183.434C295.304 183.434 293.694 181.902 293.694 179.824C293.694 177.715 295.304 176.199 297.429 176.199C298.554 176.199 299.546 176.652 300.226 177.402H303.601V175.355H305.335ZM305.694 187.777V189.184H296.069V184.652H297.804V187.777H305.694ZM297.429 177.746C296.21 177.746 295.351 178.559 295.351 179.824C295.351 181.074 296.21 181.887 297.429 181.887C298.585 181.887 299.46 181.074 299.476 179.824C299.46 178.559 298.585 177.746 297.429 177.746ZM300.991 178.809C301.077 179.129 301.132 179.465 301.132 179.824C301.132 180.168 301.085 180.496 301.007 180.809H303.601V178.809H300.991ZM318.491 176.512C318.491 178.293 320.476 180.09 323.491 180.48L322.804 181.887C320.405 181.527 318.499 180.348 317.585 178.746C316.655 180.348 314.757 181.527 312.382 181.887L311.694 180.48C314.679 180.09 316.663 178.293 316.663 176.512V175.793H318.491V176.512ZM324.007 183.105V184.543H318.397V189.465H316.679V184.543H311.132V183.105H324.007ZM336.726 184.355V189.465H334.976V185.762H327.085V184.355H336.726ZM336.726 175.34V183.668H334.976V175.34H336.726ZM329.022 176.152C331.194 176.137 332.819 177.559 332.819 179.543C332.819 181.559 331.194 182.965 329.022 182.965C326.835 182.965 325.21 181.559 325.21 179.543C325.21 177.559 326.835 176.137 329.022 176.152ZM329.022 177.621C327.788 177.637 326.897 178.371 326.913 179.543C326.897 180.746 327.788 181.496 329.022 181.48C330.241 181.496 331.116 180.746 331.116 179.543C331.116 178.371 330.241 177.637 329.022 177.621ZM351.679 181.652V182.949H348.397V183.918H350.116V187.137H342.022V188.137H350.538V189.34H340.288V186.012H348.397V185.137H340.272V183.918H342.069V182.949H338.772V181.652H351.679ZM350.085 175.652V178.824H342.132V179.684H350.335V180.887H340.413V177.699H348.351V176.84H340.366V175.652H350.085ZM343.788 183.918H346.679V182.949H343.788V183.918ZM279.421 199.309V200.715H277.499V202.34H279.421V203.793H277.499V205.684H275.765V197.34H277.499V199.309H279.421ZM277.499 206.293V211.465H275.765V207.699H268.093V206.293H277.499ZM270.327 198.152C272.499 198.137 274.124 199.559 274.14 201.543C274.124 203.559 272.499 204.965 270.327 204.965C268.14 204.965 266.499 203.559 266.515 201.543C266.499 199.559 268.14 198.137 270.327 198.152ZM270.327 199.621C269.108 199.637 268.202 200.371 268.218 201.543C268.202 202.746 269.108 203.496 270.327 203.48C271.53 203.496 272.436 202.746 272.436 201.543C272.436 200.371 271.53 199.637 270.327 199.621ZM288.452 210.23C285.983 210.23 284.186 208.793 284.155 206.777H286.749C286.78 207.621 287.53 208.168 288.452 208.168C289.515 208.168 290.28 207.418 290.265 206.324C290.28 205.215 289.499 204.465 288.421 204.465C287.608 204.465 287.077 204.777 286.765 205.387H284.374L284.936 198.762H292.171V200.918H287.124L286.858 203.621H286.936C287.327 202.996 288.202 202.559 289.265 202.559C291.327 202.559 292.843 204.09 292.843 206.246C292.843 208.574 291.077 210.23 288.452 210.23ZM294.171 208.168V206.09L298.858 198.762H302.218V206.074H303.593V208.168H302.218V210.074H299.671V208.168H294.171ZM296.827 206.074H299.718V201.59H299.624L296.827 205.98V206.074ZM308.171 204.543C306.421 204.543 305.468 203.262 305.468 201.434C305.468 199.574 306.452 198.309 308.171 198.309C309.952 198.309 310.89 199.574 310.905 201.434C310.89 203.293 309.921 204.543 308.171 204.543ZM308.171 203.012C308.827 203.012 309.155 202.387 309.155 201.434C309.155 200.48 308.858 199.824 308.171 199.84C307.546 199.84 307.218 200.512 307.218 201.434C307.218 202.387 307.561 203.012 308.171 203.012ZM316.061 210.527C314.296 210.512 313.343 209.246 313.358 207.402C313.343 205.559 314.343 204.277 316.061 204.277C317.843 204.277 318.78 205.559 318.78 207.402C318.78 209.262 317.811 210.512 316.061 210.527ZM316.061 208.98C316.718 208.98 317.03 208.355 317.046 207.402C317.03 206.449 316.733 205.809 316.061 205.809C315.421 205.809 315.093 206.48 315.093 207.402C315.093 208.355 315.452 208.98 316.061 208.98ZM307.249 210.074L315.03 198.762H316.936L309.155 210.074H307.249Z" fill="#2B2B2B"/>
<path d="M236.836 296.682C224.267 296.682 215.279 289.445 215.203 279.314H229.295C229.447 283.199 232.799 285.637 236.836 285.637C241.558 285.637 244.91 282.361 244.834 277.486C244.91 272.459 241.558 269.26 236.836 269.26C233.027 269.184 230.666 270.859 229.295 273.602H216.422L218.783 240.771H255.422V252.35H230.742L229.599 264.766H229.904C231.656 261.49 236.15 259.129 241.635 259.129C251.537 259.129 258.849 266.518 258.849 277.029C258.849 288.531 250.166 296.682 236.836 296.682ZM264.943 287.16V275.887L287.262 240.771H305.619V275.811H312.017V287.16H305.619V295.92H291.756V287.16H264.943ZM279.263 275.811H292.06V255.854H291.603L279.263 275.43V275.811ZM342.105 296.682C327.252 296.682 318.035 286.398 318.035 268.346C318.035 250.217 327.252 240.01 342.105 240.01C356.959 240.01 366.176 250.293 366.176 268.346C366.176 286.475 356.959 296.682 342.105 296.682ZM342.105 285.027C347.437 284.951 351.17 280.076 351.17 268.346C351.17 256.92 347.437 251.664 342.105 251.664C336.773 251.664 333.117 256.92 333.041 268.346C333.041 280.076 336.773 284.951 342.105 285.027Z" fill="#CE0000"/>
<path d="M378.679 282.07V290.216H370.534V282.07H378.679ZM372.882 283.972V288.352H376.331V283.972H372.882ZM383.488 280.672V285.556H385.781V287.513H383.488V293.049H381.103V280.672H383.488ZM384.104 295.435V297.337H372.491V291.838H374.858V295.435H384.104ZM400.898 280.691V293.497H398.512V292.155H395.269V290.533H398.512V280.691H400.898ZM401.271 295.435V297.337H388.633V292.267H391V290.011C389.481 290.076 388.037 290.086 386.75 290.086L386.471 288.203C389.584 288.184 393.778 288.147 397.356 287.7L397.487 289.396C396.145 289.62 394.756 289.778 393.386 289.881V293.105H391V295.435H401.271ZM391.988 281.269C394.449 281.25 396.219 282.499 396.219 284.307C396.219 286.115 394.449 287.29 391.988 287.29C389.472 287.29 387.72 286.115 387.72 284.307C387.72 282.499 389.453 281.25 391.988 281.269ZM391.988 283.002C390.777 283.002 389.956 283.468 389.975 284.307C389.956 285.127 390.777 285.575 391.988 285.575C393.125 285.575 393.945 285.127 393.964 284.307C393.945 283.468 393.125 283.002 391.988 283.002Z" fill="#2B2B2B"/>
<path d="M195.704 275.149L187.029 273.579L190.007 281.877L195.704 275.149ZM156.498 289.219L156.756 289.937L189.495 278.189L189.237 277.47L188.979 276.752L156.24 288.5L156.498 289.219Z" fill="url(#paint0_linear_1848_3226)"/>
<rect x="241.344" y="129.717" width="97.2698" height="26" rx="3.81745" fill="#CE0000"/>
<path d="M254.229 137.318V147.217H251.891V139.506H251.836L249.607 140.873V138.85L252.055 137.318H254.229ZM256.812 147.217L260.859 139.273V139.205H256.129V137.318H263.279V139.219L259.219 147.217H256.812ZM266.355 137.072V139.834H267.723V137.072H269.555V145.604H264.496V137.072H266.355ZM266.355 144.031H267.723V141.365H266.355V144.031ZM275.092 135.979V148.529H273.205V142.309H272.275V147.969H270.416V136.143H272.275V140.709H273.205V135.979H275.092ZM289.953 135.979V148.557H287.971V135.979H289.953ZM283.104 136.84C285.004 136.84 286.426 138.576 286.439 141.324C286.426 144.113 285.004 145.85 283.104 145.85C281.162 145.85 279.74 144.113 279.74 141.324C279.74 138.576 281.162 136.84 283.104 136.84ZM283.104 138.617C282.215 138.617 281.641 139.533 281.654 141.324C281.641 143.143 282.215 144.059 283.104 144.059C283.965 144.059 284.539 143.143 284.539 141.324C284.539 139.533 283.965 138.617 283.104 138.617ZM296.201 137.947C296.201 139.396 296.953 140.818 298.99 141.434L297.951 142.951C296.646 142.541 295.757 141.741 295.23 140.709C294.69 141.905 293.754 142.842 292.346 143.307L291.279 141.775C293.439 141.064 294.219 139.41 294.219 137.742V136.662H296.201V137.947ZM301.506 135.979V138.809H303.133V140.436H301.506V143.361H299.537V135.979H301.506ZM297.363 143.594C299.975 143.594 301.629 144.51 301.629 146.055C301.629 147.627 299.975 148.543 297.363 148.529C294.697 148.543 293.029 147.627 293.029 146.055C293.029 144.51 294.697 143.594 297.363 143.594ZM297.363 145.125C295.805 145.125 294.984 145.439 294.998 146.055C294.984 146.711 295.805 146.998 297.363 146.998C298.908 146.998 299.688 146.711 299.688 146.055C299.688 145.439 298.908 145.125 297.363 145.125ZM311.391 139.861C311.391 141.57 312.184 143.566 314.234 144.537L313.154 146.014C311.842 145.433 310.946 144.318 310.434 142.992C309.894 144.421 308.95 145.624 307.535 146.219L306.469 144.701C308.574 143.785 309.422 141.652 309.436 139.861V139.547H306.934V137.988H309.422V136.279H311.404V137.988H313.865V139.547H311.391V139.861ZM316.695 135.979V140.764H318.473V142.404H316.695V148.529H314.727V135.979H316.695ZM329.383 135.979V148.557H327.4V135.979H329.383ZM322.533 136.84C324.434 136.84 325.855 138.576 325.869 141.324C325.855 144.113 324.434 145.85 322.533 145.85C320.592 145.85 319.17 144.113 319.17 141.324C319.17 138.576 320.592 136.84 322.533 136.84ZM322.533 138.617C321.645 138.617 321.07 139.533 321.084 141.324C321.07 143.143 321.645 144.059 322.533 144.059C323.395 144.059 323.969 143.143 323.969 141.324C323.969 139.533 323.395 138.617 322.533 138.617Z" fill="white"/>
<defs>
<linearGradient id="paint0_linear_1848_3226" x1="156.667" y1="289.689" x2="195.873" y2="275.62" gradientUnits="userSpaceOnUse">
<stop stop-color="white"/>
<stop offset="1" stop-color="#CE0000"/>
</linearGradient>
</defs>
</svg>
