<svg width="34" height="34" viewBox="0 0 34 34" fill="none" xmlns="http://www.w3.org/2000/svg">
<g clip-path="url(#clip0_1679_21940)">
<rect width="34" height="34" rx="17" fill="black"/>
<path d="M14.7441 20.9297C14.7715 17.457 15.7559 16.3906 17.4785 15.3242C18.6543 14.5859 19.5293 13.6562 19.5293 12.2891C19.5293 10.7578 18.3535 9.77344 16.8496 9.77344C15.4824 9.77344 14.1699 10.6484 14.0879 12.4805H10.6699C10.752 8.81641 13.5137 6.92969 16.877 6.92969C20.5684 6.92969 23.1113 8.98047 23.1113 12.2344C23.1113 14.4492 21.9902 15.8984 20.2129 16.9648C18.627 17.9219 17.9707 18.8789 17.9434 20.9297V21.1758H14.7441V20.9297ZM16.4395 27.2188C15.2637 27.2188 14.3066 26.2617 14.3066 25.0859C14.3066 23.9375 15.2637 22.9805 16.4395 22.9805C17.5605 22.9805 18.5449 23.9375 18.5449 25.0859C18.5449 26.2617 17.5605 27.2188 16.4395 27.2188Z" fill="white"/>
</g>
<defs>
<clipPath id="clip0_1679_21940">
<rect width="34" height="34" rx="17" fill="white"/>
</clipPath>
</defs>
</svg>
